<svg xmlns="http://www.w3.org/2000/svg" width="256" height="256"><path fill="#1976D2" fill-opacity=".016" fill-rule="evenodd" d="M0 128.004v128.004l128.25-.254 128.25-.254.254-127.75L257.008 0H0v128.004m.485.496c0 70.4.119 99.053.265 63.672.146-35.38.146-92.98 0-128C.604 29.153.485 58.1.485 128.5"/><path fill="#1976D2" fill-opacity=".107" fill-rule="evenodd" d="M115.035 2.153c-7.572 2.975-15.053 10.621-17.98 18.378-5.731 15.188 2.078 34.214 16.473 40.133 6.241 2.566 5.989 4.877-.627 5.755-12.176 1.615-31.757 9.772-41.725 17.38l-4.388 3.35-2.394-2.249C63.077 83.663 62 82.155 62 81.549c0-.607-3.096-4.175-6.881-7.931-5.387-5.346-7.321-6.689-8.91-6.184-3.837 1.217-4.415 3.033-1.964 6.175L46.5 76.5l-2.912-2.272-2.913-2.271-2.32 2.179c-4.461 4.191-4.122 5.541 3.263 12.983C45.374 90.904 48.879 94 49.409 94c.529 0 1.954.932 3.167 2.072l2.205 2.071-6.337 9.479c-16.462 24.621-20.627 53.663-11.739 81.854 8.578 27.208 28.406 48.819 54.715 59.637 13.71 5.638 23.216 7.233 39.49 6.628 10.786-.401 15.447-1.058 22.59-3.183 31.863-9.479 54.995-32 64.795-63.082 8.888-28.191 4.723-57.233-11.739-81.854l-6.337-9.479 2.205-2.071c1.213-1.14 2.638-2.072 3.167-2.072.53 0 4.035-3.096 7.791-6.881 7.446-7.503 7.621-8.286 3.015-13.514l-2.551-2.895-6.322 6.266c-3.477 3.447-6.771 5.989-7.319 5.651-.548-.339 1.981-3.508 5.621-7.042l6.618-6.426-2.765-1.26c-2.67-1.216-3.005-1.022-9.722 5.644-3.826 3.797-6.957 7.399-6.957 8.006 0 .606-1.077 2.114-2.394 3.351l-2.394 2.249-4.388-3.35c-9.968-7.608-29.549-15.765-41.725-17.38-6.213-.824-7.003-3.329-1.659-5.261 5.337-1.93 13.125-9.573 16.26-15.955 3.855-7.851 4.006-19.253.352-26.677-3.125-6.351-9.241-12.463-15.578-15.568-7.03-3.445-18.806-3.804-26.439-.805m-7.868 7.597-3.755 3.75 3.544-2.997c1.949-1.649 3.971-3.336 4.494-3.75.523-.414.618-.753.211-.753-.406 0-2.428 1.688-4.494 3.75m12.264-.932c-17.573 6.075-22.949 26.183-10.567 39.521C111.21 50.866 115.963 54 117.45 54c1.654 0 .179-2.848-1.985-3.834-2.503-1.141-2.532-1.284-2.25-11.411L113.5 28.5l3.708-1.812c5.121-2.503 15.692-2.454 20.61.095l3.682 1.908.285 10.16c.281 10.024.251 10.175-2.25 11.315-2.3 1.048-3.601 3.839-1.785 3.83 1.816-.009 7.246-4.124 9.718-7.366 10.375-13.602 3.903-33.176-12.59-38.074-6.611-1.963-9.136-1.92-15.447.262m-18.477 8.268c-.614 1.147-.928 2.274-.697 2.504.23.23.932-.708 1.559-2.086 1.378-3.024.707-3.35-.862-.418m54.125 18.497c.048 1.165.285 1.402.604.605.289-.722.253-1.585-.079-1.917-.332-.332-.568.258-.525 1.312m-2.935 8.167c-1.091 2.55-1.066 2.609.34.809.834-1.068 1.516-2.305 1.516-2.75 0-1.52-.678-.81-1.856 1.941m-4.707 6.5L144.5 53.5l3.25-2.937c3.029-2.738 3.71-3.563 2.937-3.563-.172 0-1.635 1.462-3.25 3.25M111.5 71.473c-8.331 1.539-17.907 4.695-24.912 8.212-6.283 3.154-16.406 10.276-19.088 13.429-1.247 1.466-1.377 1.871-.347 1.077 2.363-1.823 3.117.684.967 3.217-.891 1.049 1.151-.301 4.539-3 13.734-10.946 29.039-17.354 46.304-19.386 10.02-1.18 11.323-1.609 9.084-2.993-1.02-.631-.609-.979 1.529-1.296 1.608-.238-.226-.46-4.076-.493-3.85-.033-10.15.522-14 1.233m83.532 15.649c-1.717 1.717-2.862 3.382-2.544 3.7.318.318 2.244-1.087 4.279-3.122 2.035-2.035 3.179-3.7 2.543-3.7-.636 0-2.561 1.405-4.278 3.122M127 94.939c1.158.871.517.994-2.813.537-5.418-.743-13.849 1.034-21.937 4.624-3.437 1.526-6.25 2.332-6.25 1.792 0-.541-1.071.05-2.38 1.313-1.309 1.262-5.394 4.485-9.077 7.162-3.683 2.678-6.962 5.603-7.288 6.5-.326.898-1.882 3.208-3.458 5.133a964.309 964.309 0 0 0-3.871 4.75c-.553.688-.65 1.257-.215 1.265.434.009.308.346-.28.75-2.036 1.4-5.609 10.255-7.745 19.195-1.397 5.851-2.675 9.126-3.666 9.395-.873.237-.563.462.73.529 2.072.107 3.368 2.116 1.365 2.116-.487 0-.649 2.935-.361 6.522.486 6.06.39 6.478-1.365 5.905-1.563-.509-1.63-.427-.389.479 1.333.972 1.333 1.216 0 2.188-1.245.909-1.182.991.369.486 1.556-.507 1.79-.193 1.396 1.871-.261 1.363.023 2.686.63 2.938.74.307.655.774-.258 1.414-.956.67-1.018 1.07-.206 1.341.637.212 1.23 1.342 1.318 2.511.097 1.291.668 1.93 1.456 1.628.712-.273 1.295.001 1.295.61S63.56 189 63.021 189c-.595 0-.532.979.161 2.5.626 1.375 1.543 2.5 2.038 2.5.494 0 .69-.338.435-.75-.255-.412.619-.815 1.941-.894 3.088-.185 3.071.949-.038 2.613-2.344 1.255-2.375 1.398-.756 3.544.928 1.23 2.252 2.02 2.943 1.755.69-.265 1.255.016 1.255.625S70.529 202 69.953 202c-.575 0-.238 1.113.75 2.473.988 1.36 2.41 2.255 3.158 1.989.862-.307 1.162.036.818.933-.736 1.918 2.625 4.809 4.676 4.022 1.87-.717 2.193.635.544 2.284-.801.801-.528 1.282 1 1.767 1.156.367 2.101 1.142 2.101 1.722 0 .613.697.48 1.663-.318 1.423-1.174 1.592-1.159 1.173.108-.269.814.404 2.204 1.496 3.088 1.999 1.618 1.502 4.565-.556 3.294-.647-.401-.797-.206-.371.483 1.056 1.71 1.32 1.528 4.292-2.963 2.649-4.003 4.507-4 2.364.003-.876 1.637-.663 2.28 1.18 3.571 1.324.927 2.388 1.157 2.587.56.644-1.931 2.403-1.009 1.882.985-.288 1.101-.119 1.752.375 1.446.495-.305 1.671-.123 2.615.405 1.249.699 2.086.509 3.07-.696 1.176-1.438 1.274-1.162.747 2.094-.516 3.183-.336 3.738 1.188 3.671 1.048-.046 1.275-.289.545-.583-2.006-.81-1.44-2.338.867-2.338 1.624 0 1.995.465 1.593 2-.287 1.1-.171 2 .259 2 .429 0 1.122-1.463 1.539-3.25l.758-3.25.749 3c.412 1.65.802 2.452.867 1.781.132-1.367 3.181-.565 4.353 1.146.414.605.741.092.75-1.177.008-1.238.465-2.25 1.015-2.25.55 0 1 .649 1 1.443 0 .904.746 1.298 2 1.057 1.218-.235 2 .153 2 .991 0 .757-1.237 1.564-2.75 1.793-2.56.387-2.525.427.5.566 3.201.148 3.25.083 3.25-4.291 0-2.443.45-4.719 1-5.059.564-.348 1 .462 1 1.859 0 4.316.958 5.734 3.1 4.588 1.465-.785 1.9-.682 1.9.448 0 .806-1.012 1.661-2.25 1.899-1.929.372-1.858.453.5.57 2.419.12 2.75-.225 2.75-2.864 0-3.761 1.958-3.992 2.116-.25.064 1.512.313 2.009.554 1.103.545-2.055 4.33-3.219 4.33-1.333 0 .733-.787 1.539-1.75 1.791-1.255.328-1.081.49.613.573 2.083.102 2.311-.246 1.917-2.928-.592-4.037 1.071-4.953 1.857-1.022.337 1.686.965 3.066 1.394 3.066.43 0 .546-.9.259-2-.402-1.535-.031-2 1.593-2 1.518 0 2.127-.637 2.152-2.25.035-2.222.054-2.218 1.465.25.786 1.375 1.445 1.986 1.465 1.357.063-2.053 3.225-2.472 4.717-.624 1.305 1.614 1.337 1.578.373-.417-1.567-3.244-1.399-4.846.356-3.39 1.048.87 1.592.879 2.113.035.386-.624 1.574-.907 2.64-.628 1.886.493 1.883.412-.113-2.97-2.331-3.952-2.432-4.363-1.077-4.363.536 0 1.698 1.398 2.581 3.107l1.607 3.107 1.509-2.155c1.262-1.801 1.781-1.95 3.169-.905 1.4 1.054 1.464 1.03.41-.152-.687-.771-1.25-2.042-1.25-2.824 0-1.151.286-1.185 1.5-.178.865.718 1.5.815 1.5.229 0-1.685 3.144-2.347 4.877-1.027.893.681.611.097-.627-1.297-2.453-2.763-3.068-4.829-.902-3.031 1.028.853 1.772.651 3.134-.854.982-1.085 2.288-1.681 2.902-1.325.614.357.259-.329-.789-1.523-1.048-1.195-1.412-2.172-.809-2.172.603 0 1.395.484 1.76 1.074.963 1.559 3.499-3.794 2.737-5.779-.465-1.213-.212-1.482.968-1.029 1.022.392 2.143-.219 3.11-1.695 1.417-2.162 1.359-2.378-.924-3.418-1.34-.611-2.437-1.57-2.437-2.132 0-1.426 1.194-1.274 3.683.47 2 1.401 2.19 1.311 3.17-1.5.634-1.818.671-2.991.095-2.991-.521 0-.948-.498-.948-1.107s.593-.879 1.319-.601c.793.304 1.755-.65 2.413-2.393.61-1.617.69-2.899.181-2.899-.502 0-.913-.498-.913-1.107 0-.636.732-.826 1.72-.447.945.363 1.424.365 1.063.004-.36-.361-.257-1.704.231-2.986.608-1.6.51-2.484-.314-2.821-.85-.348-.883-.731-.112-1.317 1.635-1.242 2.361-5.163 1.056-5.702-.776-.32-.661-.813.356-1.533 1.017-.719 1.097-1.065.25-1.076-.687-.008-1.25-.877-1.25-1.932 0-1.054.563-2.143 1.25-2.421.688-.277.012-.54-1.5-.583-1.512-.043-2.75-.529-2.75-1.079 0-.55 1.238-1.045 2.75-1.1 2.283-.082 2.41-.21.75-.75-1.359-.441-2.046-1.612-2.144-3.65-.211-4.394-3.801-13.215-7.925-19.471-1.984-3.009-3.181-5.612-2.661-5.786.521-.173 1.798-.999 2.838-1.834 1.771-1.422 1.74-1.445-.485-.361-1.877.914-2.581.873-3.345-.195-.762-1.066-.86-1.016-.465.238.276.875.1 2.225-.39 3-.697 1.101-.899.971-.923-.591-.017-1.1-.487-2.675-1.046-3.5-.753-1.113-.85-.79-.376 1.25.351 1.512.356 3.875.011 5.25-1.065 4.243-6.44 2.68-6.707-1.95-.08-1.386-.323-1.104-.75.868-.711 3.28-3.124 4.749-3.147 1.915-.01-1.101-.309-1.4-.75-.748-.404.597-8.121 7.011-17.148 14.254-15.296 12.273-20.091 15.341-15.498 9.917l1.911-2.256-2.25 1.905c-1.238 1.048-2.25 2.819-2.25 3.936 0 1.116-1.012 3.181-2.25 4.587l-2.25 2.558 2.25-1.898c2.535-2.138 3.107-.587.679 1.841-1.767 1.766-5.174 2.028-7.429.571-.825-.533-1.145-.976-.711-.985.434-.008-.129-1-1.25-2.204-4.106-4.406-1.293-11.158 4.442-10.664 2.239.193 4.582-.584 7.416-2.46 3.627-2.401 4.008-2.995 3.057-4.774-.845-1.577-.793-1.967.229-1.744.724.159 2.313-.576 3.531-1.632 1.796-1.558 1.985-2.201 1-3.415-1.015-1.252-.908-1.382.657-.794 1.505.565 1.77.321 1.36-1.249-.309-1.181.082-2.177.992-2.526 1.161-.446 1.24-.892.348-1.968-.882-1.062-.85-1.493.137-1.825 1.039-.35 1.023-.76-.08-2.097-1.164-1.41-1.164-1.668 0-1.695 1.078-.025 1.042-.293-.164-1.25-.845-.67-1.375-2.004-1.178-2.964.256-1.245-.093-1.573-1.213-1.144-.865.332-1.573.143-1.573-.42s.563-1.235 1.25-1.493c.768-.288.405-.802-.94-1.333-1.205-.475-2.247-1.314-2.316-1.864-.069-.55-.763-.869-1.544-.71-.965.198-1.21-.253-.765-1.411.518-1.351.22-1.587-1.452-1.15-1.383.361-2.316-.002-2.722-1.061-.536-1.396-.743-1.415-1.549-.14-.63.996-.936 1.068-.947.222-.008-.687-.69-1.25-1.515-1.25-.833 0-1.5.889-1.5 2 0 1.1.552 1.887 1.226 1.75.675-.138 1.381.763 1.57 2 .189 1.237-.138 2.25-.726 2.25-1.409 0-1.384 7.286.029 8.699 1.834 1.834.07 5.301-2.698 5.301-3.021 0-4.081-2.361-2.438-5.431.731-1.366 1.035-4.355.751-7.384-.263-2.798-.218-5.348.1-5.665.317-.318.674-1.24.793-2.049.262-1.787-2.237-1.975-2.945-.221-.382.949-.523.956-.583.031-.043-.67-.751-.96-1.573-.645-.822.316-1.216 1.025-.875 1.576.384.621-.189.746-1.506.328-1.537-.488-2.125-.25-2.125.861 0 .955-.568 1.318-1.5.961-.839-.322-1.5-.027-1.5.671 0 .685-.787 1.844-1.75 2.575-1.069.811-1.263 1.341-.5 1.36.688.018 1.25.53 1.25 1.139s-.631.865-1.402.569c-1.962-.753-2.798.378-1.467 1.982.848 1.021.756 1.342-.384 1.342-1.788 0-2.099 5.117-.378 6.235.808.525.774.739-.119.75-1.957.024-1.464 3.013.5 3.03 1.384.012 1.462.198.372.889-1.874 1.187-.484 3.168 1.66 2.365 1.497-.561 1.543-.428.355 1.032-1.164 1.432-1.128 1.765.25 2.294.887.341 1.613 1.294 1.613 2.119 0 .922.578 1.278 1.5.924.932-.357 1.5.006 1.5.961 0 1.111.588 1.349 2.125.861 1.317-.418 1.89-.293 1.506.328-.341.551.024 1.249.81 1.551.786.302 1.648.011 1.915-.645.361-.887.506-.873.565.056.12 1.899 2.869 1.493 3.39-.5.435-1.667.463-1.667.573 0 .133 2.004 2.697 2.375 3.454.5.382-.949.523-.956.583-.031.043.67.751.96 1.573.645.822-.316 1.271-.934.999-1.376-.273-.441.471-.549 1.653-.239 1.971.515 2.009.664.457 1.8-5.591 4.088-17.822 1.896-23.811-4.269-4.471-4.602-5.792-7.88-5.792-14.377 0-6.562 1.82-10.614 6.776-15.086 5.917-5.34 12.093-6.835 19.302-4.676 14.76 4.423 19.674 22.889 9.119 34.266-2.762 2.977 3.422-1.358 24.553-17.212 6.188-4.642 11.25-8.636 11.25-8.876 0-.241-.418-.179-.928.137-.51.315-1.196-.271-1.523-1.302-.655-2.063-5.126-6.384-10.549-10.195-1.925-1.352-3.725-2.705-4-3.006-2.042-2.236-20.155-7.667-28-8.396-1.925-.179-4.4-.645-5.5-1.035-1.639-.582-1.729-.507-.5.417m-4.8 3.261c-1.708 1.708-1.485 6.319.381 7.867 1.245 1.034 1.989 1.058 3.5.114 1.501-.937 2.368-.924 3.98.061 1.759 1.074 2.272.974 3.5-.683.791-1.068 1.439-2.89 1.439-4.05 0-4.503-5.212-6.227-6.667-2.205-.769 2.128-1.024 2.198-3.333.917-2.325-1.29-2.343-1.352-.25-.897 1.499.325 2.25.019 2.25-.918 0-1.718-3.152-1.854-4.8-.206m7.8 3.8c0 2.951 1.282 3.97 2.506 1.991.804-1.302-.358-4.991-1.573-4.991-.513 0-.933 1.35-.933 3m29.459-1.933c-.363.586-.445 1.281-.183 1.543s.743-.218 1.069-1.067c.676-1.762.1-2.072-.886-.476m-36.309 2.883c.22.66.726 1.166 1.125 1.125 1.196-.124.964-1.495-.325-1.925-.66-.22-1.02.14-.8.8m-27.681 3.55-.961 3.062c-.359 1.137.092 1.476 1.657 1.25 1.182-.172 2.362.314 2.622 1.079.362 1.064-.168 1.23-2.254.707-2.004-.503-2.615-.341-2.299.608.28.844 2.593 1.361 6.651 1.487 6.692.207 8.549-1.168 6.344-4.697-.782-1.254-.78-2.045.01-2.835.794-.794.637-1.271-.572-1.735-2.683-1.03-4.667.309-4.667 3.15 0 1.908.406 2.482 1.468 2.075 1.782-.684 3.13 1.151 1.813 2.468-.593.593-1.951-.061-3.647-1.757-1.843-1.844-2.332-2.93-1.54-3.42.639-.395.853-1.219.475-1.83-1.006-1.627-4.555-1.357-5.1.388M152 109.441c0 4.837.945 6.029 4.009 5.056 2.838-.9 2.662-5.292-.259-6.466l-2.25-.904 2.25-.064c3.409-.096 2.694-2.063-.75-2.063-2.883 0-3 .173-3 4.441m1.229 1.747c.618 1.854 2.771 2.161 2.771.395 0-.87-.713-1.583-1.583-1.583-.871 0-1.406.534-1.188 1.188m27.176 9.062-1.905 2.25 2.25-1.905c1.238-1.048 2.25-2.06 2.25-2.25 0-.8-.805-.209-2.595 1.905m-66.041 2.054c.233 1.524 1.113 2.229 2.963 2.371 1.447.111 2.867-.18 3.155-.646 1.1-1.78-.699-3.731-3.515-3.811-2.464-.07-2.881.264-2.603 2.086m21.816-.054c.176 1.237.77 2.25 1.32 2.25s1.144-1.013 1.32-2.25c.219-1.548-.192-2.25-1.32-2.25-1.128 0-1.539.702-1.32 2.25m38.32 2.335c-1.65 1.323-2.55 2.392-2 2.377 1.235-.035 5.932-3.866 5.392-4.397-.216-.212-1.742.697-3.392 2.02m-99.833 1.082c-.367.366-.667 1.747-.667 3.067 0 1.946.379 2.28 2 1.766 1.443-.458 2-.18 2 1 0 1.21-.55 1.46-2.118.962-1.531-.485-1.995-.296-1.672.683.659 2 4.684 2.294 5.413.396.559-1.458.72-1.454 1.811.038.659.901 2.068 1.471 3.132 1.266 1.569-.302 1.934-1.219 1.934-4.859 0-4.114-.207-4.486-2.49-4.486-1.958 0-2.628.642-3.132 3-.353 1.65-.695 2.423-.76 1.718-.065-.705-1.131-1.689-2.368-2.187l-2.25-.904 2.25-.064c1.237-.034 2.25-.513 2.25-1.063 0-1.112-4.286-1.38-5.333-.333m101.84 2.31c-.685 2.159.034 4.023 1.552 4.023 1.218 0 1.229-4.704.013-5.456-.51-.315-1.214.329-1.565 1.433M83 130c0 1.65.45 3 1 3s1-1.35 1-3-.45-3-1-3-1 1.35-1 3m80 3.678c-9.677 8.049-10.675 9.58-1.5 2.3 4.4-3.49 8.188-6.489 8.417-6.662.229-.174.229-.48 0-.68-.229-.2-3.342 2.069-6.917 5.042m-48.636 3.626c.401 2.624 5.138 3.437 6.058 1.04.86-2.241.012-3.027-3.37-3.123-2.552-.073-2.968.249-2.688 2.083m20.636-.361c0 2.163 4.069 3.548 5.198 1.769 1.241-1.954.336-3.167-2.526-3.387-1.994-.153-2.672.257-2.672 1.618m-9.316 3.807c-.238.412-.072 1.65.371 2.75.702 1.746.813 1.651.875-.75.069-2.713-.399-3.464-1.246-2m2.316 1.833c0 1.622.465 2.429 1.25 2.168 1.716-.572 1.816-4.751.113-4.751-.799 0-1.363 1.069-1.363 2.583m22.405 1.667-1.905 2.25 2.25-1.905c2.114-1.79 2.705-2.595 1.905-2.595-.19 0-1.202 1.012-2.25 2.25m-5 4-1.905 2.25 2.25-1.905c1.238-1.048 2.25-2.06 2.25-2.25 0-.8-.805-.209-2.595 1.905m-4.533 3.5c-1.243 1.586-1.208 1.621.378.378 1.666-1.307 2.195-2.128 1.372-2.128-.207 0-.995.787-1.75 1.75m-73.576 5.438c-2.264 3.24-2.205 4.812.18 4.812.746 0 1.586.563 1.865 1.25.706 1.742 2.812-1.277 2.148-3.082-.269-.732-.489-2.42-.489-3.75 0-3.24-1.054-3.021-3.704.77m6.311-1.606c-1.009 2.629-.701 3.418 1.334 3.418 1.068 0 2.2.419 2.516.931.943 1.525-1.426 2.34-3.001 1.033-1.166-.968-1.456-.907-1.456.307 0 .833.712 1.788 1.582 2.122 2.114.811 2.057.825 3.804-.922 1.867-1.867 1.067-4.343-1.775-5.491-2.091-.845-2.09-.854.139-.917 3.029-.085 2.892-2.063-.143-2.063-1.316 0-2.666.712-3 1.582M178.2 155.2c-1.451 1.451-1.6 3.165-.2 2.3.596-.369 1 .843 1 3s.404 3.369 1 3c1.182-.73 1.366-9.5.2-9.5-.44 0-1.34.54-2 1.2m5.407.382c-1.009 2.629-.701 3.418 1.334 3.418 1.068 0 2.2.419 2.516.931.943 1.525-1.426 2.34-3.001 1.033-1.169-.97-1.456-.902-1.456.346 0 2.472 4.104 3.268 5.687 1.103 1.704-2.33 1.268-3.6-1.766-5.148-2.413-1.232-2.414-1.236-.171-1.25 1.238-.008 2.25-.465 2.25-1.015 0-1.642-4.736-1.131-5.393.582m-56.794 11.101c.721.289 1.584.253 1.916-.079.332-.332-.258-.568-1.312-.525-1.165.048-1.402.285-.604.604m-9.128 7.975c-2.469 1.254-5.883 3.972-7.587 6.039-3.373 4.092-4.093 6.899-1.516 5.91.87-.334 1.796-.607 2.059-.607.262 0 .235-.392-.061-.871s.308-1.846 1.342-3.039l1.88-2.168 3.799 4.789a772.604 772.604 0 0 0 4.512 5.652c.392.474 1.225.546 1.852.159.738-.457-.461-2.414-3.413-5.57-2.504-2.677-4.552-5.287-4.552-5.801 0-1.44 7.972-4.295 10.105-3.618 1.042.331 1.895.161 1.895-.378 0-1.209 6.369-.331 6.835.941.185.504.711.685 1.17.401.458-.283 1.433.076 2.164.8.732.723 2.147 1.624 3.144 2.002.998.378 1.565 1.089 1.262 1.58-.304.492.455 1.17 1.686 1.507 1.835.503 1.974.785.768 1.56-1.651 1.061-.764 2.626.904 1.595 1.678-1.036 1.301-2.035-2.219-5.877-6.432-7.023-17.771-9.204-26.029-5.006m-42.95 10.446C71.47 189.384 71.378 190 74 190c1.1 0 2 .45 2 1 0 1.436 1.696 1.235 2.273-.269.268-.698.197-3.057-.158-5.241l-.646-3.972-2.734 3.586M81.2 183.2c-1.708 1.708-1.486 7.318.35 8.842 3.371 2.797 6.48-4.891 3.453-8.539-1.508-1.817-2.232-1.874-3.803-.303m88.434 1.312c-.455 1.186-.047 1.379 1.893.892 3.163-.794 3.152.609-.027 3.596-3.362 3.159-3.152 4 1 4 1.925 0 3.5-.45 3.5-1s-.979-1-2.175-1c-2.142 0-2.146-.027-.25-1.834 1.875-1.787 1.956-1.762 3.127 1 2.169 5.116 6.692 2.644 6.116-3.342-.363-3.777-3.391-5.128-5.384-2.403-1.055 1.444-1.267 1.456-1.784.108-.758-1.975-5.26-1.988-6.016-.017M82 186.941c0 1.618.45 3.219 1 3.559.595.368 1-.823 1-2.941 0-1.957-.45-3.559-1-3.559s-1 1.323-1 2.941m96.494-.932c-.804 1.302.358 4.991 1.573 4.991.513 0 .933-1.35.933-3 0-2.951-1.282-3.97-2.506-1.991M195 198c-.589 1.1-.845 2-.57 2s.981-.9 1.57-2c.589-1.1.845-2 .57-2s-.981.9-1.57 2m-99.75 5.662c-1.855.749-1.517 2.704.75 4.338 2.094 1.51 2.717 4 1 4-.55 0-1-.45-1-1s-.45-1-1-1c-1.572 0-1.167 2.722.5 3.362 2.87 1.101 4.5-.445 4.5-4.269 0-2.031-.54-4.233-1.2-4.893-1.279-1.279-1.595-1.327-3.55-.538m57.73.862c-1.603 1.932-.505 3.157 1.407 1.57 2.559-2.124 2.634.537.082 2.935-3.524 3.311-3.221 5.17.781 4.784 1.787-.172 3.025-.763 2.75-1.313-.275-.55-1.091-.933-1.814-.85-1.037.118-1.016-.199.098-1.5 2.549-2.979 2.755-3.969 1.154-5.569-1.974-1.974-2.857-1.986-4.458-.057m-51.313.143c-1.492 1.492-.618 4.333 1.333 4.333 1.111 0 2 .667 2 1.5 0 .825-.45 1.5-1 1.5s-1-.45-1-1-.45-1-1-1c-1.572 0-1.167 2.722.5 3.362 3.138 1.204 6.079-1.688 4.884-4.804-.304-.792-1.528-1.631-2.719-1.863-2.141-.418-2.14-.424.085-.559 1.237-.075 2.25-.586 2.25-1.136 0-1.112-4.286-1.38-5.333-.333m58.333.251c0 .505-.301 1.703-.669 2.661-.54 1.409-.253 1.634 1.499 1.176 2.537-.664 3.906.909 2.241 2.574-.872.872-1.375.797-2.058-.308-.497-.805-1.239-1.128-1.649-.718-.41.409.024 1.514.964 2.454 1.317 1.317 2.107 1.46 3.441.624 2.737-1.716 2.766-5.235.051-6.324-1.731-.694-1.875-.946-.57-.994 2.755-.099 2.041-2.063-.75-2.063-1.375 0-2.5.413-2.5.918M96 206c0 .55.45 1 1 1s1-.45 1-1-.45-1-1-1-1 .45-1 1m89.663 5.361c-2.519 2.948-6.81 7.061-9.536 9.14-2.977 2.27-4.748 4.323-4.435 5.139.287.748.904 1.36 1.37 1.36.467 0 4.611-3.713 9.21-8.25 4.599-4.537 6.644-6.696 4.545-4.797S183 216.891 183 216.262s.417-1.402.927-1.717c1.196-.739 7.388-8.545 6.779-8.545-.255 0-2.524 2.412-5.043 5.361M72.25 215.603c4.759 4.975 6.283 7.723 3 5.408-.963-.679-.116.279 1.881 2.127 5.699 5.275 15.524 10.628 25.869 14.092 8.999 3.014 10.291 3.181 24.5 3.175 13.709-.006 15.732-.247 23.5-2.797 11.032-3.622 21.117-9.139 20.352-11.134-.311-.811-.708-1.474-.882-1.474-.174 0-3.653 1.8-7.731 3.999-18.088 9.757-42.423 11.341-61.919 4.031-8.038-3.014-19.553-10.146-26.82-16.611-6.356-5.654-6.395-5.672-1.75-.816m49.388-3.103c-.642 1.675.891 2.072 1.872.484.346-.559 1.069-.744 1.608-.411.624.386.581 1.084-.118 1.927-.759.914-.774 1.522-.049 1.97 1.552.959 1.272 2.53-.451 2.53-.825 0-1.5-.477-1.5-1.059s-.472-.767-1.049-.411c-.716.443-.678 1.094.123 2.059 1.518 1.83 3.365 1.792 4.935-.1 1.111-1.338 1.404-1.309 2.564.25 1.036 1.393 1.688 1.529 3.118.654 2.112-1.293 2.729-3.583 1.879-6.972-.832-3.312-4.106-3.134-6.052.329-.851 1.512-1.487 2.075-1.414 1.25.073-.825.08-2.062.014-2.75-.167-1.769-4.786-1.558-5.48.25m8.77.878c-.817 2.131-.131 4.882 1.342 5.372.816.272 1.25-.633 1.25-2.608 0-3.337-1.683-5.132-2.592-2.764m49.103 6.245c-.945 1.443-1.224 2.318-.62 1.944 1.154-.713 3.483-4.567 2.759-4.567-.231 0-1.193 1.18-2.139 2.623m-4.947 4.084c-.542 1.425-.428 1.54.56.56.684-.679.991-1.486.683-1.793-.308-.308-.867.247-1.243 1.233M148 232c-1.282.828-1.246.972.25.985.963.008 1.75-.435 1.75-.985 0-1.22-.113-1.22-2 0m-33.187 2.683c.721.289 1.584.253 1.916-.079.332-.332-.258-.568-1.312-.525-1.165.048-1.402.285-.604.604"/><path fill="#1976D2" fill-opacity=".246" fill-rule="evenodd" d="M119 .935C101.788 6.19 91.63 23.895 96.405 40.32c2.192 7.542 8.48 15.15 15.787 19.101 7.45 4.029 8.133 6.258 2.19 7.149-2.424.363-4.64 1.039-4.926 1.502-.286.462-1.202.579-2.036.259-.847-.325-2.19.246-3.042 1.294-.84 1.031-1.23 1.294-.868.585.826-1.62-4.617-.489-5.745 1.194-.432.646-.754.685-.781.096-.026-.55-.708-.126-1.516.941-.807 1.068-1.468 1.429-1.468.802 0-.831-.81-.856-3-.093-1.65.575-3 1.478-3 2.007 0 .528-.45.683-1 .343s-1.036.196-1.079 1.191c-.049 1.114-.278 1.314-.596.52-.581-1.448-7.039 1.852-13.516 6.908C69.778 85.704 67.494 87 66.733 87 65.191 87 61 82.911 61 81.407 61 79.703 48.51 68 46.692 68c-3.935 0-2.969 3.162 2.723 8.914 4.626 4.675 5.435 5.965 4.322 6.889-1.082.899-2.408.077-6.304-3.908-2.713-2.775-5.768-5.503-6.789-6.062-1.021-.56 1.17 1.85 4.868 5.354 5.84 5.532 6.522 6.539 5.186 7.649-1.31 1.087-2.396.378-7.272-4.743-5.52-5.798-7.426-6.686-7.426-3.46 0 1.897 10.263 12.748 14.582 15.418 4.882 3.017 4.886 4.43.032 11.274-5.382 7.588-10.648 18.05-13.426 26.675-3.592 11.152-5.925 28.986-4.316 33 .572 1.428 1.067 1.857 1.154 1 .085-.825.794 2.047 1.577 6.382 1.011 5.598 1.116 8.252.362 9.161-.667.803-.704 1.501-.099 1.874.53.328 1.191.03 1.47-.661.314-.781.536-.616.585.435.043.93-.378 1.974-.937 2.319-.559.346-.728 1.095-.375 1.666.413.669.946.556 1.501-.319.575-.908.864-.963.875-.166.008.655-.442 1.474-1.001 1.819-.559.346-.728 1.095-.375 1.666.413.669.946.556 1.501-.319.575-.908.864-.963.875-.166.008.655-.442 1.474-1.001 1.819-.559.346-.685 1.16-.279 1.809.405.65.862 1.982 1.014 2.961 1.025 6.581 13.061 24.361 22.64 33.445 12.001 11.381 25.044 18.805 41.246 23.479 6.811 1.964 10.092 2.268 23.895 2.209 14.423-.061 16.887-.336 25-2.787 4.95-1.496 11.815-4.026 15.255-5.622 24.54-11.39 44.452-35.374 51.197-61.667 7.346-28.641 2.331-56.184-14.57-80.016-2.41-3.399-4.382-6.583-4.382-7.076 0-1.169 4.346-5.245 5.593-5.245.531 0 3.823-2.884 7.317-6.409 5.661-5.712 6.275-6.716 5.645-9.226l-.706-2.817-6.38 6.571c-4.537 4.672-6.689 6.261-7.451 5.499-.762-.762.87-2.832 5.651-7.165 4.501-4.08 6.322-6.34 5.511-6.842-.756-.467-3.652 1.597-7.716 5.499-5.028 4.829-6.777 5.977-7.696 5.058-.919-.919.228-2.619 5.049-7.484 6.008-6.062 6.692-7.684 3.237-7.684C206.296 68 194 79.9 194 81.603c0 1.199-4.223 5.397-5.43 5.397-.441 0-3.819-2.006-7.507-4.458-7.773-5.168-19.013-10.691-20.227-9.941-.46.285-.836.114-.836-.378 0-1.097-11.78-4.477-12.992-3.728-.478.296-1.12.132-1.427-.363-.306-.496-2.587-1.206-5.069-1.578-5.994-.899-5.826-2.855.522-6.071 15.534-7.872 22.653-26.143 16.046-41.185-3.07-6.99-10.992-14.373-18.393-17.142C132.83-.035 123.977-.584 119 .935m1.734 1.106c-9.212 2.286-17.028 8.818-20.812 17.391-4.388 9.943-2.148 23.622 5.246 32.021 3.717 4.223 11.236 8.476 12.591 7.122.774-.775-.1-1.49-6.798-5.568-4.693-2.858-9.485-9.535-11.085-15.448-1.476-5.453-.561-14.342 1.97-19.141 1.136-2.155 2.085-3.523 2.11-3.041.024.483 2.181-1.092 4.794-3.5 2.612-2.407 4.642-4.698 4.512-5.091-.131-.393.505-.429 1.414-.08 1.043.4 1.407.237.987-.443-.431-.697.096-.877 1.492-.512 1.258.329 1.909.162 1.562-.399-.365-.591 2.574-.927 7.594-.869 9.751.112 16.022 2.822 22.1 9.55 4.971 5.502 6.599 9.651 6.545 16.685-.08 10.61-4.612 18.378-13.72 23.518-3.93 2.218-5.072 3.328-4.261 4.139.811.811 1.361.708 2.051-.383.519-.821.964-1.042.989-.492.025.55.504.212 1.065-.75.561-.962 1.56-1.743 2.22-1.735.734.01.618.392-.3.985-.825.533-1.04.976-.478.985 2.107.031 8.39-6.052 7.81-7.562-.344-.898-.077-1.387.662-1.214.682.16 1.398-.384 1.591-1.209.193-.825 1.25-3.975 2.35-7s2.014-7.106 2.032-9.068c.052-5.621-2.642-13.218-6.457-18.215-6.167-8.077-20.109-13.076-29.776-10.676M109 9.314c-1.375 1.238-3.154 3.136-3.953 4.218-.799 1.083.439.189 2.75-1.985 3.791-3.565 4.706-4.611 3.953-4.515-.138.017-1.375 1.044-2.75 2.282m10.994-1.38c-20.737 6.308-24.526 34.53-6.032 44.924 3.533 1.986 4.038 2.061 4.038.6 0-.919-1.125-2.555-2.5-3.637-2.35-1.848-2.5-2.531-2.5-11.358 0-8.369.218-9.509 2-10.463 1.908-1.021 2.008-.737 2.183 6.215l.184 7.285.633-8c.348-4.4.716-7.405.817-6.679.14 1.015.547.957 1.754-.25 1.652-1.651 10.877-2.21 13.105-.793.646.412 1.358 2.542 1.581 4.735l.407 3.987.168-4.285c.161-4.112.259-4.237 2.418-3.1 3.437 1.809 3.718 2.722 3.735 12.112.014 8.213-.132 8.823-2.485 10.365-1.375.901-2.5 2.512-2.5 3.58 0 1.893.078 1.896 3.111.135 4.867-2.827 10.5-9.846 11.893-14.82 4.501-16.077-7.941-31.7-25.004-31.395-2.475.044-5.628.423-7.006.842M132.286 30.5c.008 2.75.202 3.756.432 2.236.229-1.52.223-3.77-.014-5-.237-1.23-.425.014-.418 2.764m-7.401 22.167c-.063 2.658-.042 5.581.048 6.494.089.914-.309 1.953-.885 2.309-.576.357-1.048 1.071-1.048 1.589 0 1.23 5.072 1.187 7-.059 1.29-.834 1.262-.972-.204-.985-1.404-.012-1.757-1.19-2-6.685-.188-4.223-.755-6.822-1.546-7.084-.875-.289-1.285 1.038-1.365 4.421m22.987-.917c-1.243 1.586-1.208 1.621.378.378 1.666-1.307 2.195-2.128 1.372-2.128-.207 0-.995.788-1.75 1.75m-36.634 19.36c-19.933 3.321-42.306 16.895-54.406 33.009-4.797 6.388-11.342 17.367-7.577 12.708 1.208-1.494 1.457-1.508 2.327-.128.79 1.253 1.687.47 4.763-4.163 7.27-10.95 20.401-22.348 33.155-28.781 2.75-1.387 8.825-3.786 13.5-5.331 7.955-2.629 9.558-2.807 25-2.781 13.804.024 17.642.371 23.486 2.124 3.842 1.152 7.179 1.901 7.416 1.664.237-.237-.094-.431-.735-.431-.642 0-1.167-.664-1.167-1.475 0-1.181.526-1.275 2.639-.472 1.451.552 2.83.812 3.063.578.671-.671-14.584-5.42-21.136-6.58-6.933-1.228-22.788-1.197-30.328.059m3.031 6.583c.973.254 2.323.237 3-.037.677-.274-.119-.481-1.769-.461-1.65.02-2.204.244-1.231.498m-5.519.969c.688.278 1.813.278 2.5 0 .688-.277.125-.504-1.25-.504s-1.937.227-1.25.504M102.5 80c-1.261.542-1.445.859-.5.859.825 0 2.4-.386 3.5-.859 1.261-.542 1.445-.859.5-.859-.825 0-2.4.386-3.5.859m13.8.08c-3.411.521-7.236 1.363-8.5 1.87l-2.3.923 2.5.079c2.056.065 2.234.27 1 1.158-1.192.857-1.089.919.5.3 1.1-.428 9.404-.857 18.454-.955 9.979-.107 16.585-.572 16.788-1.182.691-2.073-19.194-3.607-28.442-2.193m-25.078 4.381C87.25 86.364 84 88.171 84 88.475c0 .305 2.588-.717 5.75-2.271 3.162-1.553 6.875-3.329 8.25-3.947 1.375-.617 2.037-1.152 1.472-1.189-.566-.038-4.278 1.489-8.25 3.393M195 86.5c-2.264 2.336-3.063 3.837-2.396 4.504.667.667 2.132-.168 4.396-2.504s3.063-3.837 2.396-4.504c-.667-.667-2.132.168-4.396 2.504M54.399 85.163c-.418.677.602 2.343 2.441 3.986 1.738 1.552 3.16 3.142 3.16 3.533s-1.595-.835-3.544-2.724c-2.755-2.671-3.731-3.131-4.388-2.068-.584.946.219 2.301 2.607 4.398l3.451 3.03 2.093-2.093 2.093-2.093-2.906-3.494c-3.194-3.84-3.936-4.207-5.007-2.475m67.35-.474c-1.296.339-1.592 1.088-1.141 2.884.37 1.476.174 2.427-.5 2.427-.609 0-1.108-1.125-1.108-2.5 0-4.256-5.958-2.923-6.068 1.357l-.067 2.643-1.104-2.291c-.652-1.354-1.68-2.07-2.514-1.75-.776.297-1.824.541-2.329.541-.505 0-.934 1.237-.953 2.75-.035 2.645-.082 2.67-1.25.653-1.046-1.805-1.579-1.944-3.831-1-2.174.911-2.475 1.478-1.783 3.347.477 1.285.448 2.25-.066 2.25-.495 0-1.172-.855-1.503-1.9-.523-1.646-.988-1.754-3.491-.809l-2.888 1.09 1.944 3.809c2.295 4.499 1.129 5.155-1.438.81-1.952-3.304-2.771-3.571-5.577-1.819-1.732 1.081-1.763 1.376-.372 3.5 1.857 2.833.742 3.074-1.55.335-1.636-1.956-1.695-1.957-4.134-.077-2.436 1.878-2.445 1.941-.59 3.991 1.037 1.145 1.66 2.307 1.385 2.582-.275.275-1.323-.409-2.329-1.521l-1.83-2.022-2.337 2.195-2.336 2.195 2.18 2.321c2.503 2.664 1.42 3.163-1.376.633-1.758-1.591-1.989-1.558-4.078.586l-2.215 2.273 2.25 1.536c3.163 2.159 2.823 3.713-.356 1.63-2.528-1.656-2.663-1.634-4.455.727l-1.847 2.435 3.954 2.352c5.425 3.226 5.022 4.916-.444 1.861l-4.397-2.458-1.103 2.42c-1.455 3.193-1.507 3.041 1.648 4.753 1.512.821 2.075 1.503 1.25 1.517-.825.013-2.17-.399-2.988-.917-1.095-.692-1.813-.357-2.715 1.266-1.728 3.108-1.633 3.449 1.453 5.226l2.75 1.584-2.905-.61c-4.969-1.043-6.537 4.298-1.845 6.284l2.75 1.164-3.25-.298c-1.833-.168-3.256.172-3.264.779-.007.592-.285 2.089-.616 3.327-.533 1.988-.233 2.25 2.572 2.25 1.747 0 2.935.39 2.641.866-.294.476-1.671.649-3.059.383-1.812-.346-2.524-.049-2.524 1.053 0 .844-.273 2.246-.607 3.116-.499 1.3.205 1.582 3.941 1.582 2.501 0 4.826.45 5.166 1 .381.616-1.323 1-4.441 1-4.931 0-5.059.074-5.059 2.94 0 2.663.353 2.975 3.75 3.316l3.75.377-3.303.819c-2.808.696-3.258 1.211-3 3.429.234 2.012.99 2.735 3.303 3.158l3 .549-2.841.748c-2.004.527-2.667 1.202-2.25 2.288.325.847.591 2.214.591 3.037 0 1.143.771 1.36 3.25.916 3.12-.558 3.15-.534.75.617a174.69 174.69 0 0 0-2.755 1.34c-.139.078.24 1.558.843 3.289.921 2.641 1.394 2.989 2.939 2.163 1.013-.543 2.434-.968 3.157-.946.724.022.079.711-1.434 1.532-3.167 1.718-3.11 1.543-1.591 4.878l1.159 2.543 4.493-2.511c5.752-3.215 6.638-2.47 1.281 1.076-4.651 3.077-4.763 3.392-2.3 6.434 1.623 2.004 1.918 2.062 3.123.611.731-.882 1.837-1.588 2.457-1.57.621.019.091.898-1.175 1.954-2.208 1.84-2.234 2.026-.635 4.467 2.026 3.092 2.214 3.106 5.124.372 1.272-1.196 2.314-1.701 2.314-1.122s-1.013 1.733-2.25 2.565l-2.25 1.513 2.43 2.615 2.429 2.614 2.465-2.255 2.464-2.256-1.843 2.879c-1.83 2.857-1.825 2.895.575 4.838 2.414 1.955 2.423 1.954 4.225-.271 2.433-3.004 2.902-2.126.736 1.38l-1.746 2.826-6.765-6.326c-18.485-17.285-27.516-40.933-24.704-64.693.627-5.298 1.382-10.758 1.677-12.133.295-1.375-.153-.475-.994 2s-2.217 9.073-3.058 14.662c-1.382 9.192-1.376 11.039.061 19.368 2.974 17.237 10.978 31.726 24.317 44.021 15.857 14.616 33.14 21.362 54.731 21.362 16.045 0 28.283-3.347 42.272-11.558 8.507-4.994 22.891-19.859 27.922-28.855 15.857-28.352 13.906-61.611-5.191-88.5-6.484-9.129-20.763-21.947-18.826-16.899.554 1.442.27 1.416-2.272-.209-2.855-1.826-2.879-1.825-1.405.062 1.599 2.047 1.682 2.047-3.322.007-.8-.326-2.073.858-3.227 3-1.048 1.947-2.253 3.539-2.678 3.539-1.143 0-.984-.528 1.351-4.486 1.168-1.979 1.843-3.88 1.5-4.223-.343-.344-.624-.113-.624.511s-.672.877-1.494.562c-.822-.316-1.292-.901-1.044-1.302.247-.401-.199-.729-.991-.729-.793 0-1.704.825-2.024 1.834-.32 1.008-1.032 1.833-1.582 1.833s-.726-.864-.391-1.919c.436-1.373.028-2.104-1.432-2.568-1.123-.356-2.078-1.405-2.121-2.33-.046-.979-.499-.532-1.083 1.067-1.316 3.602-2.606 3.53-2.071-.115.358-2.441.034-2.94-2.188-3.365-2.115-.404-2.721-.051-3.202 1.866-.818 3.256-2.296 2.98-2.065-.386.158-2.313-.249-2.8-2.562-3.066-2.192-.253-2.75.091-2.75 1.691 0 1.104-.45 2.285-1 2.625-.583.361-1-.656-1-2.441 0-2.732-.32-3.059-3-3.059-2.937 0-3.002.11-3.119 5.25l-.119 5.25-.957-5.25c-.935-5.129-1.373-5.523-5.056-4.561m76.43 5.627c-1.768 1.823-2.932 3.597-2.588 3.942.634.634 7.409-5.41 7.409-6.609 0-1.454-1.784-.467-4.821 2.667M79.385 95.162c-8.496 6.367-22.053 21.799-17.674 20.119 1.704-.654 1.706-.566.036 1.982-3.36 5.129-1.709 3.906 2.569-1.903 2.374-3.223 7.662-9.017 11.75-12.877 4.089-3.859 7.007-6.671 6.484-6.25-1.989 1.605-2.779.677-1.05-1.233 2.361-2.609 1.493-2.542-2.115.162m42.682 3.712c-1.474 2.756-1.336 4.715.462 6.512 2.611 2.611 4.561.889 4.237-3.742-.325-4.65-2.885-6.159-4.699-2.77m7 0c-1.49 2.785-1.332 4.718.539 6.589 2.406 2.406 4.574.148 4.195-4.369-.348-4.133-3.035-5.394-4.734-2.22m40.492 1.376-1.872 3.25 2.506-2.283c2.491-2.269 2.518-2.271 4.897-.345 2.288 1.852 2.316 2.022.651 3.861-2.616 2.891-2.094 3.947.669 1.351l2.41-2.264L181 106l2.18 2.18-2.34 2.554-2.34 2.554 2.81-1.798c2.416-1.547 3.007-1.601 4.218-.39 1.505 1.504-.262 2.928-38.978 31.41-12.678 9.328-15.763 11.172-17.978 10.748-2.983-.57-7.572 2.88-7.572 5.694 0 5.757 8.411 8.402 11.539 3.628.872-1.33 1.445-3.088 1.273-3.907-.192-.916 6.635-7.091 17.78-16.08 16.725-13.49 20.538-16.23 18.902-13.584-.342.555-.267 2.017.169 3.25.664 1.879.876 1.538 1.315-2.116.468-3.908 1.166-4.87 6.779-9.349 3.441-2.746 5.959-4.217 5.595-3.269-.619 1.613-.489 1.611 2.031-.04 2.588-1.696 2.748-1.691 4.123.125 2.021 2.67 1.909 2.97-2.006 5.39-4.88 3.016-4.402 4.568.548 1.78 3.986-2.245 4.069-2.25 5.5-.339 2.008 2.684 1.853 3.278-1.298 4.987-1.512.821-2.158 1.51-1.434 1.532.723.022 2.122-.392 3.108-.919 1.433-.767 2.023-.452 2.947 1.575 1.267 2.781.765 4.384-1.371 4.384-.76 0-1.701.516-2.09 1.146-.503.813.105.942 2.096.442 4.874-1.223 6.406 4.216 1.744 6.19l-2.75 1.164 3.181-.288c2.505-.226 3.3.152 3.737 1.779 1.003 3.738.619 4.436-2.668 4.844l-3.25.403 3.25.16c2.064.102 3.25.678 3.25 1.578 0 .78.273 2.13.607 3 .499 1.3-.205 1.582-3.941 1.582-2.501 0-4.826.45-5.166 1-.377.609 1.121 1 3.834 1 3.137 0 4.631.467 5.059 1.582 1.269 3.306.601 4.298-3.143 4.674l-3.75.377 3.195.797c2.433.608 3.278 1.426 3.545 3.434.192 1.45.707-.739 1.143-4.864 1.405-13.285-2.35-31.124-8.983-42.679-4.187-7.295-11.934-16.768-17.835-21.809-2.904-2.482-5.473-4.512-5.707-4.512-.235 0-1.269 1.463-2.299 3.25m-46.09-1.2c-.918 1.486-.188 2.012 1.417 1.021.859-.532.962-1.047.29-1.462-.571-.353-1.339-.154-1.707.441m7.214-.4c-.375.376-.683 1.996-.683 3.6 0 3.468 2.322 3.309 2.835-.194.354-2.418-.999-4.559-2.152-3.406M123 103.5c0 .825.675 1.5 1.5 1.5s1.5-.675 1.5-1.5-.675-1.5-1.5-1.5-1.5.675-1.5 1.5m29.607 3.082c-1.014 2.643-.698 3.418 1.393 3.418 1.149 0 2 .667 2 1.567 0 1.113-.581 1.383-2 .933-1.1-.349-2-.203-2 .326 0 1.571 3.146 2.298 4.627 1.069 2.1-1.744 1.635-4.854-.877-5.864l-2.25-.904 2.25-.064c3.029-.085 2.892-2.063-.143-2.063-1.316 0-2.666.712-3 1.582M95 108.567c0 2.113.355 2.455 2 1.933 1.35-.429 2-.18 2 .766 0 2.208-1.183 2.827-2.821 1.475-1.231-1.016-1.415-.969-1.013.259.784 2.396 4.558 2.444 5.313.067.772-2.435-.045-4.067-2.038-4.067-2.032 0-1.797-1.76.309-2.311 1.077-.281.692-.502-1-.573-2.316-.098-2.75.289-2.75 2.451m7 0c0 2.113.355 2.455 2 1.933 1.35-.429 2-.18 2 .766 0 2.138-1.166 2.841-2.658 1.603-.991-.822-1.342-.812-1.342.04 0 1.778 2.85 2.46 4.513 1.08 2.1-1.743 1.845-4.083-.513-4.699-2.467-.645-2.596-1.988-.25-2.601 1.077-.281.692-.502-1-.573-2.316-.098-2.75.289-2.75 2.451m25.136 3.683c-.075 1.513-.641 2.75-1.258 2.75-.776 0-.738.464.122 1.5 1.004 1.209.979 1.503-.128 1.515-1.111.013-1.124.173-.064.845 1.388.881.93 4.793-1.037 8.856-1.897 3.919 2.482 7.094 5.225 3.789.999-1.204.926-1.976-.378-3.965-2.121-3.237-2.06-7.476.132-9.18 1.622-1.26 1.629-1.454.097-2.649-.909-.709-1.86-2.397-2.114-3.75-.444-2.374-.465-2.364-.597.289m59.428 2.457c-.542 1.425-.428 1.54.56.56.684-.679.991-1.486.683-1.793-.308-.308-.867.247-1.243 1.233m-136.105 5.36c-.363.586-.445 1.281-.183 1.543s.743-.218 1.069-1.067c.676-1.762.1-2.072-.886-.476m59.541-.174c0 .491.739 1.176 1.641 1.523 1.373.527 1.435.38.378-.893-1.44-1.735-2.019-1.916-2.019-.63m32.981.63c-1.057 1.273-.995 1.42.378.893.902-.347 1.641-1.032 1.641-1.523 0-1.286-.579-1.105-2.019.63m-27.552 1.602c0 1.031.353 1.875.785 1.875.432 0 .786-.45.786-1s.477-1 1.059-1 .781.45.441 1-.169 1 .379 1 .933-.844.855-1.875c-.089-1.188-.904-1.875-2.223-1.875-1.369 0-2.082.642-2.082 1.875m21.137-1.232c-.376.609-.095 1.114.625 1.122.951.011.899.281-.191.985-1.282.828-1.246.972.25.985 1.926.017 2.167-.779.86-2.842-.6-.946-1.067-1.021-1.544-.25m38.284 5.536c-.895 1.965-.895 3.177 0 5.142 2.248 4.934 7.434.983 5.591-4.259-1.311-3.727-4.094-4.167-5.591-.883M75 125.918c0 .505-.259 1.594-.576 2.421-.396 1.029.155 1.606 1.75 1.831 1.279.182 2.101.78 1.826 1.33-.275.55-1.287.893-2.25.762-.963-.131-1.75.18-1.75.691 0 1.504 1.868 2.224 4.009 1.544 2.77-.879 2.604-4.896-.259-6.277l-2.25-1.085 2.309-.067c1.272-.038 2.032-.517 1.691-1.068-.775-1.255-4.5-1.322-4.5-.082m7.2.282c-3.11 3.11.025 10.518 3.3 7.8 2.545-2.112 1.397-9-1.5-9-.33 0-1.14.54-1.8 1.2m94.184 1.242c-.74 1.929-.123 4.616 1.116 4.861.55.108 1.141-1.266 1.313-3.053.317-3.286-1.378-4.548-2.429-1.808M82.638 128.5c-.683 1.78.205 4.5 1.469 4.5.491 0 .893-1.35.893-3 0-3.161-1.386-4.041-2.362-1.5m32.791 8.252c0 1.117.828 1.803 2.285 1.894 1.627.101 2.286-.404 2.286-1.752 0-1.042-.436-1.894-.969-1.894-.532 0-.723.787-.424 1.75.518 1.667.49 1.667-.581 0-1.44-2.24-2.597-2.239-2.597.002M137.5 136c-.729 1.18.217 3 1.559 3 .518 0 .941-.9.941-2 0-2.109-1.455-2.691-2.5-1m-27.041 3.067c-1.076 1.741.149 2.11 1.521.457.789-.95.865-1.524.201-1.524-.584 0-1.36.48-1.722 1.067m31.541-.658c0 .19.675.906 1.5 1.591.865.718 1.5.815 1.5.229 0-.558-.675-1.274-1.5-1.591-.825-.316-1.5-.419-1.5-.229m-16.375 2.389c-.271.439-.08 1.451.426 2.25.717 1.134.922.959.934-.798.015-2.313-.493-2.856-1.36-1.452m3.329-.798c-.664 3.105-.65 4.07.066 4.512 1.413.874 2.152-1.386 1.065-3.254-.564-.967-1.072-1.533-1.131-1.258m-1.875 8.583c.048 1.165.285 1.402.604.605.289-.722.253-1.585-.079-1.917-.332-.332-.568.258-.525 1.312m-58.829 7.82c-2.803 3.571-2.793 3.838.198 5.225 2.915 1.351 3.405.483 2.601-4.61l-.549-3.482-2.25 2.867m5.75-1.485c0 .505-.274 1.634-.61 2.508-.465 1.211-.047 1.528 1.75 1.332 1.546-.169 2.36.26 2.36 1.242 0 1.008-.819 1.408-2.496 1.218-2.347-.265-2.395-.18-.8 1.414 1.402 1.402 1.964 1.473 3.246.41 2.257-1.873 1.897-4.967-.7-6.011-1.63-.655-1.784-.922-.559-.968 2.804-.105 3.153-2.063.368-2.063-1.407 0-2.559.413-2.559.918m104.08.485c-.879 1.06-.948 1.597-.202 1.597.617 0 1.122 1.35 1.122 3s.45 3 1 3c1.139 0 1.222-4.58.133-7.347-.66-1.677-.849-1.7-2.053-.25m5.682 1.059c-.387 2.029-.1 2.425 1.634 2.25 1.298-.131 2.104.363 2.104 1.288 0 .997-.839 1.42-2.5 1.263-2.394-.227-2.419-.175-.582 1.233 1.424 1.092 2.261 1.185 3.25.365 2.064-1.714 1.574-4.828-.918-5.83-1.63-.655-1.784-.922-.559-.968 2.725-.102 3.186-2.063.485-2.063-1.802 0-2.566.646-2.914 2.462m-115.095 1.205c-.367.366-.667 1.131-.667 1.7 0 .626.466.567 1.183-.15.651-.651.951-1.416.667-1.7-.284-.285-.817-.217-1.183.15m59.897.626c.376.986.935 1.541 1.243 1.233.308-.307.001-1.114-.683-1.793-.988-.98-1.102-.865-.56.56m-3.485 1.29c.048 1.165.285 1.402.604.605.289-.722.253-1.585-.079-1.917-.332-.332-.568.258-.525 1.312m-87.502 7.672c.279 4.265 1.382 11.24 2.452 15.5 2.272 9.051 10.489 26.217 14.956 31.245l3.109 3.5-3.068-4.428c-2.297-3.317-2.749-4.625-1.802-5.21.799-.494 2.121.215 3.591 1.928 1.62 1.887 1.435 1.344-.61-1.79-8.27-12.674-14.027-30.179-14.284-43.434-.043-2.236-.306-3.503-.583-2.816-.742 1.838-3.108 1.521-3.73-.5-.296-.963-.31 1.74-.031 6.005m175.539-1.963c-.202 6.587-3.138 18.911-6.54 27.446-3.117 7.821-3.161 8.107-.874 5.639 3.479-3.755 3.82-2.34.848 3.524-1.421 2.804-2.322 5.099-2.002 5.099.32 0 2.318-3.713 4.439-8.25 4.373-9.352 7.565-21.185 8.295-30.75.272-3.575.288-5.713.034-4.75-.255.963-1.072 1.75-1.816 1.75s-1.559-.787-1.811-1.75c-.251-.963-.509-.044-.573 2.042M127.158 174c0 1.375.227 1.938.504 1.25.278-.687.278-1.812 0-2.5-.277-.687-.504-.125-.504 1.25m72.159 1.184c1.872.683 2.626 1.522 2.25 2.503-.312.812-.567 2.151-.567 2.974 0 1.14-.778 1.362-3.25.931l-3.25-.567 3 1.396c3.443 1.601 3.93 1.148 5.02-4.671.701-3.739.693-3.75-2.659-3.671l-3.361.079 2.817 1.026M34.5 178c-.34.55-.141 1 .441 1S36 178.55 36 178s-.198-1-.441-1-.719.45-1.059 1m81.341 3.5c2.026 3.748 8.083 10.056 8.121 8.458.021-.848-2.041-3.548-4.582-6s-4.134-3.558-3.539-2.458m-41.226 3.965c-1.99 3.038-2.056 4.535-.198 4.535.779 0 1.645.563 1.924 1.25.706 1.742 2.812-1.277 2.148-3.082-.269-.732-.489-2.195-.489-3.25 0-2.638-1.452-2.403-3.385.547m5.806-1.12c-.314.818-.424 2.762-.246 4.321.26 2.27.823 2.834 2.825 2.834 2.25 0 2.5-.4 2.5-4 0-3.389-.344-4.049-2.254-4.32-1.308-.186-2.494.303-2.825 1.165m90.246-.678c-1.305 1.304-.642 2.557.744 1.407 2.836-2.354 2.846 1.049.011 4.007L168.626 192l3.937-.136c2.503-.087 3.082-.299 1.59-.582l-2.347-.447 2.125-2.262c1.288-1.37 1.875-2.915 1.49-3.918-.634-1.653-3.495-2.248-4.754-.988m6.45 1.546c-.982 2.653-.407 5.301 1.491 6.877 1.968 1.633 4.392-.582 4.392-4.012 0-4.842-4.365-6.968-5.883-2.865M82 187.5c0 1.925.42 3.5.933 3.5 1.302 0 2.24-3.387 1.483-5.359C83.333 182.819 82 183.845 82 187.5m26.5-2.5c.34.55 1.068 1 1.618 1s.722-.45.382-1c-.34-.55-1.068-1-1.618-1s-.722.45-.382 1m36 0c-.34.55-.168 1 .382 1s1.278-.45 1.618-1c.34-.55.168-1-.382-1s-1.278.45-1.618 1m33.908.378c-.817 2.131-.131 4.882 1.342 5.372.816.272 1.25-.633 1.25-2.608 0-3.337-1.683-5.132-2.592-2.764m20.2 2.046c-.564 2.25-.911 2.411-3.258 1.519-3.617-1.375-3.806-.741-.368 1.232 2.82 1.618 2.867 1.603 4.07-1.301.67-1.616.986-3.17.703-3.453-.283-.283-.799.619-1.147 2.003M185 192.912c0 .524.787 1.216 1.75 1.537.963.321 2.846 1.429 4.185 2.461 2.362 1.822 2.384 1.955.723 4.489-1.654 2.525-1.802 2.558-4.435.998l-2.723-1.614 2.368 2.114c1.943 1.735 2.145 2.382 1.127 3.609-.682.822-.998 1.494-.703 1.494.296 0 2.221-2.293 4.278-5.095 4.102-5.589 4.209-5.25-2.82-8.964-2.062-1.09-3.75-1.553-3.75-1.029m-90.291 11.712c-1.397 1.398-.677 2.595.815 1.356 1.916-1.59 3.162-.512 1.593 1.379-.917 1.105-.805 1.547.525 2.057 1.253.481 1.401.941.568 1.774-.834.834-1.567.76-2.83-.282-1.478-1.22-1.639-1.208-1.209.092.272.825 1.583 1.5 2.912 1.5 2.153 0 2.417-.437 2.417-4 0-3.265-.375-4.054-2.041-4.292-1.123-.161-2.36.027-2.75.416m6.898.958c-1.047 2.729-.672 3.573 1.309 2.945 2.244-.713 3.792 1.165 2.239 2.718-.76.76-1.564.663-2.775-.337-1.478-1.22-1.639-1.208-1.209.092.272.825 1.583 1.5 2.912 1.5 3.26 0 4.1-4.378.996-5.19-2.738-.716-2.65-2.061.171-2.604 2.005-.387 1.963-.448-.393-.57-1.583-.081-2.886.498-3.25 1.446m50.852-.515c-.363.586-.365 1.361-.005 1.721.36.36 1.03.047 1.489-.695.458-.742 1.368-1.019 2.02-.616.86.532.656 1.326-.739 2.878-3.583 3.989-3.588 4.654-.033 4.529 1.82-.064 2.522-.322 1.559-.573-2.146-.561-2.271-1.897-.25-2.673.825-.316 1.5-1.714 1.5-3.107 0-2.017-.496-2.531-2.441-2.531-1.343 0-2.738.48-3.1 1.067m7.291 1.458c-.395 2.069-.16 2.423 1.3 1.959 2.197-.697 3.595 1.271 2.021 2.845-.872.872-1.358.825-1.988-.194-.55-.89-1.055-.989-1.486-.292-.359.581.228 1.528 1.306 2.105 1.498.802 2.338.668 3.572-.566 2.013-2.013 1.557-3.535-1.523-5.083l-2.39-1.202 2.469-.985 2.469-.985-2.633-.064c-2.046-.049-2.742.501-3.117 2.462m22.147 2.537 2.397 1.996-2.327 2.477-2.326 2.476-2.52-2.255-2.52-2.256 1.767 2.817c1.452 2.317 1.542 3.116.503 4.5-.694.926 1.301-.777 4.433-3.783 6.107-5.86 6.416-6.248 4.356-5.457-.737.283-1.917-.181-2.622-1.031-.706-.851-1.79-1.531-2.41-1.513-.621.019-.049.932 1.269 2.029m-59.196 2.57c-1.292 1.292-.721 2.629.641 1.499.738-.612 1.634-.821 1.991-.464.357.357.148 1.253-.464 1.991-.819.987-.817 1.342.009 1.342.617 0 1.122.727 1.122 1.617 0 1.124-.609 1.457-2 1.093-2.255-.589-2.763.783-.597 1.614 2.727 1.047 4.556-1.542 3.757-5.318-.695-3.285-2.888-4.944-4.459-3.374m6.966.035c-1.323 1.323-.695 8.108.804 8.684 1.715.658 4.529-1.82 4.529-3.988 0-3.717-3.357-6.673-5.333-4.696m.972 1.027c-1.33 1.331-.651 6.306.861 6.306.993 0 1.5-.993 1.5-2.941 0-2.935-1.15-4.575-2.361-3.365M61 215.5c1.292 1.375 2.574 2.5 2.849 2.5.275 0-.557-1.125-1.849-2.5-1.292-1.375-2.574-2.5-2.849-2.5-.275 0 .557 1.125 1.849 2.5m29.621 5.883c-3.078 5.253-3.074 5.229-1.069 5.999.859.329 1.289.169.962-.359-.324-.525.359-2.813 1.518-5.086 2.885-5.655 1.824-6.073-1.411-.554m70.41-3.69c-.017.656.905 2.779 2.048 4.717 1.144 1.938 1.765 4.034 1.38 4.657-.489.79-.018.768 1.555-.075 1.576-.843 1.891-1.433 1.045-1.956-.666-.411-2.288-2.5-3.604-4.642-1.316-2.142-2.407-3.357-2.424-2.701m8.8.807c2.485 4.51 2.767 4.697 4.224 2.797.759-.988.977-1.455.486-1.038-.491.418-2-.257-3.353-1.5-2.188-2.01-2.338-2.038-1.357-.259M58 218.313c0 .172 1.462 1.635 3.25 3.25l3.25 2.937-2.937-3.25c-2.738-3.029-3.563-3.71-3.563-2.937m38.877 8.058c-.659 1.446-1.688 2.636-2.288 2.644-.599.009-.43.433.376.942 1.113.704 1.777.184 2.765-2.167 1.594-3.791.817-5.084-.853-1.419m59.163-2.236c-.022.35.538 2.011 1.245 3.692.976 2.321 1.638 2.834 2.75 2.13.945-.597 1.032-.932.247-.942-.67-.008-1.889-1.253-2.71-2.765-.821-1.512-1.51-2.464-1.532-2.115m-29.197 7.366c-.189 3.026-.005 5.501.407 5.5.412 0 .75-2.476.75-5.501 0-7.099-.715-7.098-1.157.001m-22.905-1.838c-.727 1.913-.679 2.969.172 3.75.86.79 1.005.769.53-.079-.36-.641-.212-2.329.328-3.75.54-1.421.757-2.584.482-2.584s-.955 1.198-1.512 2.663m45.652-.413c.398 1.238.729 2.793.734 3.456.005.663.357.991.783.728.425-.263.306-1.818-.265-3.456-1.199-3.439-2.339-4.102-1.252-.728m-37.983 1.332c-1.157 3.014-.648 5.418 1.143 5.403 1.313-.012 1.424-.223.442-.845-.85-.539-1.075-1.759-.642-3.485.722-2.876.045-3.647-.943-1.073m30.835 1.098c.295 1.956.014 3.368-.731 3.671-.677.275-.44.526.539.57 1.922.087 2.198-2.179.661-5.421-.759-1.598-.853-1.361-.469 1.18m-23.632 1.82c-.225 1.925-.049 3.5.391 3.5.439 0 .799-1.575.799-3.5s-.176-3.5-.391-3.5c-.214 0-.574 1.575-.799 3.5m15.519-1.406c.354 1.323.65 2.969.657 3.656.008.688.386 1.25.841 1.25 1.149 0 .179-5.878-1.1-6.669-.672-.415-.814.21-.398 1.763"/><path fill="#1976D2" fill-opacity=".39" fill-rule="evenodd" d="M125.762.707c1.244.239 3.044.23 4-.02S129.7.241 127.5.252c-2.2.011-2.982.216-1.738.455m8.051.976c.721.289 1.584.253 1.916-.079.332-.332-.258-.568-1.312-.525-1.165.048-1.402.285-.604.604m-22.906 3.161C97.743 13.193 91.96 30.078 97.769 43.21c3.2 7.235 4.056 6.318 1.421-1.523-2.818-8.387-2.627-15.649.602-22.95 2.492-5.633 9.051-12.308 14.547-14.804 2.288-1.039 3.462-1.899 2.607-1.911-.855-.012-3.572 1.258-6.039 2.822m29.593-.693c14.884 7.676 21.044 25.244 14.14 40.324-2.312 5.05-2.415 5.631-.726 4.103 2.926-2.648 5.086-10.085 5.085-17.506-.001-11.394-7.725-23.553-17.577-27.669-4.961-2.073-5.517-1.622-.922.748m-22.363 2.128c-4.58 1.464-14.048 10.317-16.274 15.216-1.074 2.364-1.828 6.375-1.841 9.787-.038 9.993 4.586 17.787 13.556 22.849 8.43 4.757 6.853 7.632-1.778 3.242-1.486-.755-3.052-1.373-3.482-1.373-1.233 0 5.94 4.642 8.34 5.397 2.512.791 3.916 3.63 2.29 4.635-.615.38-1.068 1.091-1.005 1.58.063.488-2.036 1.142-4.664 1.453-10.8 1.277-28.484 8.723-39.413 16.597C71.317 87.498 68.593 89 67.812 89 66.229 89 60 82.959 60 81.424c0-.54-2.888-3.844-6.417-7.342-4.748-4.706-6.876-6.183-8.183-5.682-1.475.566-.728 1.724 4.539 7.038 4.105 4.142 6.033 6.798 5.528 7.616-.458.74-.369 1.003.216.642.546-.337 2.683 1.118 4.749 3.235 4.137 4.236 4.486 7.496.823 7.682-3.124.158-5.485 2.401-4.896 4.652.311 1.188-.784 3.585-2.908 6.367-13.09 17.15-20.205 42.732-17.579 63.211 3.706 28.895 17.238 51.739 40.146 67.773 3.565 2.495 6.351 5.007 6.191 5.583-.162.581.417.775 1.302.435.876-.336 1.368-.247 1.092.199-1.416 2.291 10.312 7.912 21.897 10.496 20.68 4.612 40.513 2.466 60.731-6.571 3.703-1.655 6.489-3.403 6.191-3.884-.297-.481-.99-.874-1.54-.874s-.679.52-.287 1.155c.443.715.275.883-.44.44-.635-.392-1.155-.848-1.155-1.012 0-.164 2.81-2.033 6.244-4.153 8.376-5.169 21.459-17.893 27.203-26.455 8.943-13.33 14.628-29.793 16.06-46.508 1.656-19.337-5.665-43.73-17.958-59.835-2.131-2.792-3.219-5.178-2.906-6.374.355-1.36-.581-2.736-3.243-4.766-2.058-1.57-3.368-2.211-2.911-1.423.457.787.448 1.082-.021.655-2.097-1.907-1.242-4.695 2.467-8.046 2.141-1.934 3.718-3.691 3.505-3.905-.213-.213 2.301-3.048 5.586-6.299 6.066-6.002 6.99-7.474 4.695-7.474C207.205 68 195 80.089 195 81.59c0 1.476-5.705 6.749-7.604 7.028-.876.129-4.411-1.696-7.856-4.054-10.899-7.462-31.403-15.832-38.54-15.733-2.935.04-3.177-.106-1.5-.905 1.729-.825 1.632-.904-.72-.584-1.496.203-2.505.023-2.244-.401.262-.424-.002-.93-.587-1.125-2.03-.676.19-3.575 4.08-5.329 2.152-.97 4.713-2.651 5.691-3.736 1.747-1.936 1.716-1.935-1.72.036-1.925 1.104-4.512 2.309-5.75 2.678-3.488 1.038-2.851-2.103.81-3.996 4.758-2.461 10.882-8.435 13.098-12.778 2.547-4.994 3.391-12.976 1.939-18.348-1.517-5.612-9.242-14.036-15.577-16.986-5.507-2.564-14.282-3.028-20.383-1.078m2.535 1.116C109.121 10.591 102 19.839 102 31.646c0 7.365 1.473 11.545 5.809 16.484 3.302 3.76 9.7 7.694 10.772 6.623 1.077-1.078-.58-7.83-1.882-7.667-3.462.435-3.699-.112-3.699-8.527 0-4.643.45-8.719 1-9.059.637-.394 1 2.479 1 7.91 0 7.169.239 8.436 1.5 7.952 1.161-.446 1.543-2.641 1.691-9.719l.192-9.143L119 36l.617 9.5.397-10 .397-10 .337 8.992c.476 12.71 2.203 13.386 2.448.958l.195-9.95.555 10.5c.305 5.775.248 10.732-.126 11.016-.374.284-.781 4.304-.903 8.933-.197 7.463-.007 8.502 1.68 9.164 1.759.69 1.766.752.094.817-2.986.116-.807 2.07 2.309 2.07 3.111 0 5.303-1.958 2.309-2.063-1.403-.05-1.281-.275.546-1.007 1.573-.63 2.154-1.465 1.75-2.518-.333-.867-.605-4.689-.605-8.494 0-6.181-.207-6.918-1.941-6.918-1.068 0-2.219-.45-2.559-1-.34-.55-.141-1 .441-1 .675 0 1.059-3.628 1.059-10 0-5.5.338-10.001.75-10.002.412-.001.608 4.499.434 10-.21 6.614.044 10.002.75 10.002.669 0 1.138-3.633 1.26-9.75l.193-9.75.557 9.5c.469 8.011.83 9.546 2.306 9.794 1.551.26 1.772-.762 1.941-9l.192-9.294L137 36l.617 9.5.192-8.75c.105-4.822.624-8.75 1.156-8.75 1.956 0 3.035 4.064 3.035 11.434 0 7.511-.276 8.082-3.699 7.652-1.211-.152-2.995 6.553-2.007 7.542.674.674 4.22-1.142 8.564-4.386 7.937-5.928 10.537-20.043 5.539-30.074-5.246-10.527-18.014-16.013-29.725-12.773M125 34.5c0 5.667.404 9.5 1 9.5s1-3.833 1-9.5-.404-9.5-1-9.5-1 3.833-1 9.5m-10.187 33.183c.721.289 1.584.253 1.916-.079.332-.332-.258-.568-1.312-.525-1.165.048-1.402.285-.604.604m1.784 2.415c-14.389 1.931-29.313 7.482-40.139 14.931-13.784 9.483-26.625 25.556-32.95 41.242-5.067 12.567-6.849 23.699-6.198 38.729.64 14.796 2.208 21.089 8.595 34.5 15.79 33.153 49.428 53.145 86.095 51.167 26.103-1.408 49.443-13.037 65.455-32.613 27.187-33.24 27.341-80.754.371-114.692-18.881-23.761-51.749-37.22-81.229-33.264m9.171 5.627c1.797.222 4.497.218 6-.01 1.503-.229.032-.411-3.268-.405-3.3.005-4.529.192-2.732.415m17.991 1.772c7.443 1.72 18.074 5.817 24.036 9.263 6.581 3.804 4.405 3.646-2.861-.208C145.417 76.2 116.83 75.181 95.5 84.076c-27.129 11.313-46.603 37.538-50.457 67.945l-.947 7.479.491-8.44c.975-16.735 9.402-35.502 22.152-49.329 5.642-6.119 5.853-6.462 1.375-2.231-18.349 17.333-28.135 44.249-25.184 69.27 3.505 29.721 20.6 54.522 46.318 67.198 8.238 4.061 20.459 8.081 24.249 7.977 1.102-.03-1.372-.936-5.497-2.013-25.399-6.632-48.077-26.216-57.568-49.715-4.805-11.895-5.372-15.935-4.414-31.421.914-14.767 2.357-21.97 6.414-32.013 9.661-23.918 32.551-42.856 58.43-48.341 8.465-1.795 24.751-1.808 33.138-.027 8.054 1.709 22.842 8.009 29.5 12.567 11.816 8.089 21.55 19.596 28.054 33.166 1.939 4.044 3.223 6.227 2.856 4.852-.368-1.375-1.766-4.682-3.107-7.349-1.34-2.668-2.186-5.101-1.878-5.409.757-.757 6.95 12.832 9.232 20.258 2.575 8.383 2.546 32.054-.052 41.836-4.221 15.895-10.536 27.397-21.452 39.072-7.018 7.506-7.11 7.657-1.273 2.092 30.789-29.355 35.339-76.48 10.71-110.911-4.914-6.869-13.879-15.69-20.59-20.257-9.823-6.686-24.624-12.715-33.741-13.744-4.175-.471-3.99-.36 1.5.909M127.3 88c0 3.025.187 4.263.416 2.75.229-1.513.229-3.987 0-5.5s-.416-.275-.416 2.75m-23.662.5c.317.825.753 1.5.969 1.5.216 0 .393-.675.393-1.5s-.436-1.5-.969-1.5c-.532 0-.709.675-.393 1.5M49 90c-.589 1.1-.845 2-.57 2s.981-.9 1.57-2c.589-1.1.845-2 .57-2s-.981.9-1.57 2m47.564 1.293c.376.986.935 1.541 1.243 1.233.308-.307.001-1.114-.683-1.793-.988-.98-1.102-.865-.56.56m77.936.948c5.771 4.19 17.549 16.161 20.64 20.977 1.714 2.672 3.351 4.624 3.637 4.338 2.23-2.23-22.189-27.679-26.411-27.524-.476.017.484 1.011 2.134 2.209M205 91c0 .55.477 1 1.059 1s.781-.45.441-1-.816-1-1.059-1-.441.45-.441 1M75.872 92.75c-1.243 1.586-1.208 1.621.378.378C77.916 91.821 78.445 91 77.622 91c-.207 0-.995.787-1.75 1.75M89 93.552c0 1.08 4.512 8.433 5.18 8.44.373.005-.453-2.017-1.836-4.492C90.03 93.359 89 92.143 89 93.552m73.244 3.975c-1.241 2.46-2.034 4.473-1.762 4.473.542 0 5.518-7.646 5.518-8.48 0-1.77-1.823.175-3.756 4.007m-38.994.204c-.687.239-1.25.938-1.25 1.552 0 .819.299.818 1.122-.005.617-.617 1.742-.884 2.5-.593.758.291 1.378.304 1.378.029 0-.821-2.407-1.452-3.75-.983m8.615.51c.751.957 1.169 3.071.931 4.697-.239 1.626-.066 2.729.385 2.45 1.492-.922.849-6.12-.931-7.516-1.584-1.242-1.621-1.207-.385.369m-9.865 4.7c0 1.068.338 2.15.75 2.404.412.255.75-.618.75-1.94 0-1.323-.338-2.405-.75-2.405s-.75.873-.75 1.941m3.5.464c0 1.322.338 2.195.75 1.94.412-.254.75-1.336.75-2.404 0-1.068-.338-1.941-.75-1.941s-.75 1.082-.75 2.405m27.5 2.513c0 .505-.274 1.634-.61 2.508-.465 1.211-.047 1.528 1.75 1.332 1.546-.169 2.36.26 2.36 1.242 0 .901-.878 1.47-2.2 1.426-1.21-.041-1.971.297-1.691.75.9 1.456 4.433.879 5.089-.832.407-1.059-.185-2.32-1.642-3.5-1.753-1.42-1.907-1.844-.667-1.844.886 0 1.611-.45 1.611-1s-.9-1-2-1-2 .413-2 .918m-57.333.749c-.367.366-.667 1.449-.667 2.406 0 1.247.566 1.592 2 1.217 1.535-.402 2-.031 2 1.593 0 2.277-2.506 2.928-3.338.867-.395-.979-.521-.972-.583.031-.122 1.977 2.903 2.666 4.535 1.033 1.876-1.875.836-4.587-1.949-5.082-2.102-.374-2.092-.417.335-1.495 2.261-1.004 2.301-1.116.417-1.174-1.146-.034-2.384.237-2.75.604m7 0c-.367.366-.667 1.449-.667 2.406 0 1.247.566 1.592 2 1.217 1.535-.402 2-.031 2 1.593 0 2.277-2.506 2.928-3.338.867-.395-.979-.521-.972-.583.031-.122 1.977 2.903 2.666 4.535 1.033 1.876-1.875.836-4.587-1.949-5.082-2.102-.374-2.092-.417.335-1.495 2.261-1.004 2.301-1.116.417-1.174-1.146-.034-2.384.237-2.75.604m78.738 3.583-1.905 2.25 2.25-1.905c1.238-1.048 2.25-2.06 2.25-2.25 0-.8-.805-.209-2.595 1.905m-54.212 9.378c-.132 4.88-.659 7.514-1.672 8.355-1.098.911-1.218 1.715-.465 3.122 2.247 4.198 6.271.832 4.092-3.422-.615-1.201-1.263-5.108-1.44-8.683l-.323-6.5-.192 7.128m31.306 14.384c-21.876 16.215-27.446 19.907-29.355 19.455-1.343-.318-3.385.116-4.75 1.01-4.499 2.948-2.324 10.523 3.022 10.523 2.748 0 5.584-2.897 5.584-5.704 0-1.451 5.456-6.453 18.75-17.189l18.75-15.142.618 3.267.619 3.268.131-3.707c.118-3.325.853-4.289 7.132-9.363 6.159-4.976 7.685-6.43 6.749-6.43-.138 0-12.4 9.006-27.25 20.012m28.373-18.262c-1.243 1.586-1.208 1.621.378.378.963-.755 1.75-1.543 1.75-1.75 0-.823-.821-.294-2.128 1.372M61 121.48c0 .598 7.632 4.531 8.71 4.489.972-.039-6.915-4.957-7.96-4.964-.413-.003-.75.211-.75.475m127.5 1.994c-2.2 1.355-3.55 2.475-3 2.49.55.014 2.8-1.083 5-2.438 2.2-1.355 3.55-2.475 3-2.49-.55-.014-2.8 1.083-5 2.438m-12.378 1.804c-1.714 1.714-1.391 7.405.46 8.115 2.205.846 2.224.839 3.407-1.372 2.077-3.882-1.133-9.477-3.867-6.743M74.71 128c-.416 1.591-.03 2 1.884 2 1.428 0 2.406.586 2.406 1.441 0 2.174-1.876 2.89-3.794 1.45-1.522-1.143-1.517-1.076.044.628 1.66 1.812 1.839 1.821 3.483.177 1.369-1.369 1.493-2.098.593-3.465-.627-.952-1.632-1.618-2.233-1.481-1.845.422-1.209-1.573.657-2.061 1.386-.362 1.307-.481-.383-.573-1.353-.074-2.325.616-2.657 1.884m6.999-1.376c-1.267 1.267-.749 6.098.791 7.376 2.284 1.895 4.677-.561 4.301-4.415-.216-2.219-.874-3.167-2.342-3.377-1.123-.161-2.36.027-2.75.416m94.478 2.626c.172 1.787.763 3.25 1.313 3.25.55 0 1.141-1.463 1.313-3.25.238-2.463-.08-3.25-1.313-3.25-1.233 0-1.551.787-1.313 3.25m-93.69-1.246c-.377.61-.399 2.249-.05 3.641.533 2.122.879 2.329 2.142 1.281 1.691-1.403 1.53-5.066-.247-5.65-.637-.21-1.467.118-1.845.728M126 129.5c0 .825.675 1.5 1.5 1.5s1.5-.675 1.5-1.5-.675-1.5-1.5-1.5-1.5.675-1.5 1.5m82.079 17.083c.048 1.165.285 1.402.604.605.289-.722.253-1.585-.079-1.917-.332-.332-.568.258-.525 1.312m-133.705 8.884c-.309.807-.37 2.044-.134 2.75s.666.045.956-1.467c.566-2.953.099-3.682-.822-1.283m110 0c-.309.807-.331 2.044-.047 2.75.283.706.551.303.594-.894.043-1.197.866-2.382 1.829-2.634 1.64-.428 1.638-.464-.031-.573-.98-.064-2.035.544-2.345 1.351M69.589 157.5c.482 1.918.24 2.5-1.04 2.5-1.005 0-1.384-.458-.954-1.155.443-.715.275-.883-.44-.44C65.33 159.532 65.808 161 68 161c1.1 0 2.007.563 2.015 1.25.012.981.189.976.824-.023 1.01-1.592.253-7.227-.972-7.227-.498 0-.623 1.125-.278 2.5M178 156c-.894.578-1.02.976-.313.985.652.008 1.368 1.478 1.59 3.265.349 2.817.424 2.684.563-1 .088-2.338.047-4.243-.09-4.235-.137.009-.925.452-1.75.985m-53.006 1.507c-1.107 1.334-1.063 1.852.264 3.18 2.145 2.144 4.972.953 4.562-1.922-.391-2.739-3.027-3.426-4.826-1.258m-48.132.73c.749.956 1.092 2.442.761 3.302-.345.9-.18 1.305.388.954 1.528-.944 1.173-3.104-.761-4.621-1.583-1.241-1.62-1.206-.388.365m110.108.227c.69.831.984 2.215.653 3.075-.345.9-.18 1.305.388.954 1.576-.974 1.145-4.219-.652-4.909-1.367-.524-1.432-.377-.389.88M126.5 159c-.34.55-.141 1 .441 1s1.059-.45 1.059-1-.198-1-.441-1-.719.45-1.059 1m-73.25.716c1.513.229 3.987.229 5.5 0s.275-.416-2.75-.416-4.263.187-2.75.416m143 0c1.512.229 3.988.229 5.5 0s.275-.416-2.75-.416-4.262.187-2.75.416M44.286 164.5c.008 2.75.202 3.756.432 2.236.229-1.52.223-3.77-.014-5-.237-1.23-.425.014-.418 2.764M184 162c0 .55.477 1 1.059 1s.781-.45.441-1-.816-1-1.059-1-.441.45-.441 1M46.195 173.5c.02 1.65.244 2.204.498 1.231.254-.973.237-2.323-.037-3-.274-.677-.481.119-.461 1.769m.884 5.083c.048 1.165.285 1.402.604.605.289-.722.253-1.585-.079-1.917-.332-.332-.568.258-.525 1.312m69.787 3.917c3.685 5.32 5.986 7.982 6.47 7.485.261-.267-1.556-2.735-4.037-5.485-2.481-2.75-3.576-3.65-2.433-2m-42.15 3.404C72.534 189.598 72.562 190 75 190c1.1 0 2.007.563 2.015 1.25.012.989.18.992.801.013.899-1.414.31-8.263-.71-8.263-.371 0-1.447 1.307-2.39 2.904m5.729-.541c-.881 3.511.345 6.637 2.603 6.637 3.778 0 3.991-8.277.227-8.815-1.646-.235-2.363.316-2.83 2.178m90.222-1.696c-.367.366-.667 1.131-.667 1.7 0 .618.482.551 1.2-.167.66-.66 1.56-1.2 2-1.2 1.515 0 .796 2.693-1.2 4.5-2.739 2.479-2.508 3.521.75 3.384 1.716-.072 2.087-.289.987-.576-1.643-.428-1.626-.634.255-3.025 1.541-1.959 1.752-2.887.891-3.924-1.21-1.458-3.134-1.774-4.216-.692m6.727.749c-.299.778-.397 2.691-.219 4.25.444 3.872 4.465 4.615 5.375.992 1.128-4.496-3.598-9.302-5.156-5.242m-95.978.942c-.909 2.368-.047 5.142 1.598 5.142.975 0 1.486-1.003 1.486-2.917 0-3.161-2.134-4.7-3.084-2.225m97.251-.691c-1.352 1.351-.696 6.333.833 6.333 1.048 0 1.5-1.056 1.5-3.5 0-3.309-.839-4.328-2.333-2.833m-103.621 2.247c-.774 1.447-.789 2.086-.05 2.086 1.213 0 2.533-2.805 1.709-3.629-.299-.298-1.045.396-1.659 1.543M63.5 195.526c-2.2 1.355-3.55 2.464-3 2.464.55 0 2.8-1.109 5-2.464s3.55-2.464 3-2.464c-.55 0-2.8 1.109-5 2.464m122.5-2.125c0 .686 7.228 4.704 7.669 4.264.229-.23-1.204-1.373-3.183-2.541-3.614-2.132-4.486-2.467-4.486-1.723m-91.566 11.706c-.467.756.038.878 1.592.385 1.907-.605 2.165-.433 1.591 1.063-.383.998-.173 2.102.477 2.503 1.902 1.176-.055 3.086-2.428 2.37-1.669-.503-1.903-.376-1.022.553.629.664 1.979 1.044 3 .844 1.7-.332 2.15-2.829 1.455-8.075-.154-1.168-3.9-.881-4.665.357m7.566 1.282c0 1.661.533 2.346 1.75 2.25.963-.076 1.75.536 1.75 1.361 0 1.005-.818 1.408-2.479 1.221-1.833-.206-2.186.014-1.356.844 1.769 1.769 4.801.655 5.164-1.898.236-1.66-.258-2.466-1.75-2.857-2.738-.716-2.65-2.061.171-2.604 1.929-.372 1.858-.453-.5-.57-2.271-.112-2.75.28-2.75 2.253m51-1.483c0 .499.9.671 2 .384 2.852-.746 2.531 1.546-.687 4.905L151.626 213l3.437-.136c2.515-.1 2.807-.256 1.09-.582l-2.347-.447 2.223-2.366c2.544-2.708 2.04-5.469-.998-5.469-1.117 0-2.031.408-2.031.906m7 1.5c0 1.914.409 2.3 2 1.884 1.559-.408 2-.031 2 1.71 0 1.741-.441 2.118-2 1.71-1.1-.287-2-.084-2 .453s1.012.832 2.25.657c3.093-.44 3.742-4.748.829-5.51-2.738-.716-2.65-2.061.171-2.604 1.929-.372 1.858-.453-.5-.57-2.276-.113-2.75.279-2.75 2.27m-37.493 5.583c-.35.566.051.734.941.393 1.732-.665 2.049-1.382.611-1.382-.518 0-1.216.445-1.552.989m9.704.41c.709.77 1.447 1.25 1.639 1.067.593-.564-.91-2.466-1.948-2.466-.54 0-.401.63.309 1.399M129 215.441c0 1.893.346 3.655.768 3.916.423.261.601-1.287.395-3.441-.461-4.836-1.163-5.122-1.163-.475m-5-.048c0 .216.698.661 1.552.989.89.341 1.291.173.941-.393-.587-.951-2.493-1.406-2.493-.596m-33.033 6.16c-1.207 1.954-1.999 3.748-1.759 3.988.24.24 1.445-1.358 2.678-3.552 2.779-4.944 2.074-5.279-.919-.436m72.082.544c1.15 2.253 2.302 3.885 2.561 3.626.486-.486-3.477-7.723-4.229-7.723-.232 0 .519 1.844 1.668 4.097M127.3 232c0 3.025.187 4.262.416 2.75.229-1.512.229-3.988 0-5.5s-.416-.275-.416 2.75m-10.05 12.689c.963.252 2.537.252 3.5 0 .963-.251.175-.457-1.75-.457s-2.713.206-1.75.457"/></svg>